<svg viewBox="0 0 120 120" xmlns="http://www.w3.org/2000/svg">
  <path
    d="M 87.548 54.652 C 82.807 54.652 78.901 52.927 75.79 49.772 C 72.637 46.661 70.912 42.754 70.912 38.015 C 70.912 33.273 72.615 29.319 75.8 26.246 C 78.871 23.058 82.805 21.379 87.548 21.379 C 92.289 21.379 96.243 23.083 99.318 26.268 C 102.505 29.339 104.186 33.272 104.186 38.015 C 104.186 42.755 102.483 46.71 99.297 49.783 C 96.225 52.972 92.292 54.652 87.548 54.652 Z M 102.375 52.864 C 105.987 49.125 108.541 43.647 108.541 38.015 C 108.541 32.382 106.068 26.859 102.386 23.177 C 98.704 19.495 93.181 17.023 87.548 17.023 C 81.915 17.023 76.413 19.518 72.71 23.177 C 69.05 26.881 66.556 32.382 66.556 38.015 C 66.556 43.645 69.08 49.101 72.701 52.841 C 76.438 56.453 81.916 59.007 87.548 59.007 C 93.18 59.007 98.634 56.479 102.375 52.864 Z" />
  <path
    d="M 111.832 98.62 L 68.509 98.621 C 68.008 98.706 67.94 98.656 67.668 98.277 L 67.616 98.206 L 67.564 98.176 C 67.199 97.955 67.248 97.883 67.248 97.312 C 67.248 87.649 67.613 83.504 64.744 77.449 L 64.711 77.381 L 64.694 77.362 C 64.322 76.918 64.377 76.772 64.748 76.252 C 67.797 70.117 72.183 66.354 77.433 64.249 C 82.609 62.021 88.1 61.742 93.522 63.1 C 98.968 64.353 103.726 67.102 107.322 71.438 C 111.038 75.699 113.224 81.037 113.144 87.893 L 113.146 97.358 C 113.25 97.825 113.156 97.867 112.761 98.238 C 112.387 98.634 112.294 98.727 111.832 98.62 Z M 115.801 101.357 C 116.592 100.454 117.38 98.779 117.494 97.341 L 117.5 87.893 C 117.418 80.217 114.699 73.477 110.637 68.613 C 106.46 63.82 100.564 60.366 94.535 58.863 C 88.486 57.468 81.663 57.857 75.762 60.227 C 69.931 62.713 64.432 67.478 60.867 74.272 C 60.238 75.787 60.241 77.965 60.874 79.44 C 63.546 84.209 62.891 87.335 62.891 97.312 C 62.891 98.776 63.706 100.34 64.459 101.221 L 64.498 101.266 L 64.541 101.303 C 65.418 102.063 67.062 102.844 68.52 102.971 L 111.836 102.976 C 113.286 102.855 114.906 102.15 115.801 101.357 Z" />
  <path
    d="M 32.456 54.658 C 27.706 54.658 23.746 52.952 20.685 49.768 C 17.5 46.704 15.815 42.767 15.815 38.019 C 15.815 33.269 17.523 29.309 20.706 26.248 C 23.769 23.063 27.706 21.38 32.456 21.38 C 37.196 21.38 41.105 23.104 44.215 26.257 C 47.372 29.375 49.192 33.299 49.095 38.032 C 49.189 42.77 47.391 46.722 44.206 49.789 C 41.141 52.974 37.204 54.658 32.456 54.658 Z M 47.285 52.868 C 50.902 49.136 53.355 43.662 53.452 38.033 C 53.358 32.406 50.956 26.885 47.294 23.178 C 43.59 19.518 38.089 17.023 32.456 17.023 C 26.822 17.023 21.319 19.518 17.615 23.178 C 13.954 26.882 11.459 32.385 11.459 38.019 C 11.459 43.658 13.989 49.118 17.606 52.846 C 21.336 56.462 26.815 59.014 32.456 59.014 C 38.095 59.014 43.554 56.483 47.285 52.868 Z" />
  <path
    d="M 56.739 98.62 L 8.09 98.623 C 7.656 98.742 7.619 98.64 7.238 98.237 C 6.835 97.856 6.738 97.745 6.856 97.312 L 6.856 87.888 C 6.776 81.029 8.974 75.681 12.691 71.424 C 16.282 67.091 21.044 64.372 26.488 63.103 C 31.917 61.765 37.413 62.04 42.585 64.266 C 47.833 66.372 52.214 70.143 55.26 76.27 C 58.803 82.79 58.046 87.674 58.046 97.313 C 58.046 97.829 58.041 97.902 57.663 98.239 C 57.282 98.642 57.171 98.738 56.739 98.62 Z M 60.743 101.317 C 61.647 100.412 62.402 98.72 62.402 97.313 C 62.402 87.929 62.905 82.051 59.139 74.286 C 55.576 67.504 50.081 62.73 44.253 60.241 C 38.355 57.874 31.53 57.471 25.477 58.865 C 19.452 60.366 13.551 63.809 9.373 68.599 C 5.315 73.461 2.581 80.209 2.5 87.888 L 2.5 97.312 C 2.589 98.688 3.247 100.405 4.159 101.317 C 5.073 102.232 6.747 102.887 8.123 102.975 L 56.739 102.976 C 58.114 102.887 59.83 102.229 60.743 101.317 Z" />
</svg>