<svg viewBox="0 0 120 120" xmlns="http://www.w3.org/2000/svg">
  <path
    d="M 65.544 1.188 C 65.936 1.313 66.328 1.439 66.732 1.568 C 67.585 1.841 68.437 2.116 69.289 2.392 C 71.615 3.149 73.946 3.89 76.277 4.633 C 76.776 4.793 77.275 4.953 77.774 5.113 C 83.556 6.961 89.358 8.741 95.162 10.519 C 96.251 10.853 97.34 11.187 98.428 11.522 C 98.954 11.682 99.48 11.844 100.006 12.005 C 101.252 12.388 102.498 12.771 103.743 13.156 C 105.724 13.768 107.701 14.375 109.698 14.929 C 109.989 15.012 110.279 15.095 110.578 15.181 C 111.293 15.382 112.011 15.577 112.729 15.77 C 114.155 16.43 115.03 17.27 115.802 18.62 C 116.07 19.784 116.059 20.909 116.04 22.099 C 116.042 22.442 116.044 22.784 116.047 23.137 C 116.051 24.268 116.042 25.398 116.032 26.53 C 116.031 27.324 116.031 28.118 116.032 28.911 C 116.031 30.578 116.023 32.245 116.011 33.912 C 115.996 36.025 115.994 38.137 115.997 40.25 C 115.999 41.893 115.993 43.536 115.987 45.179 C 115.984 45.957 115.983 46.734 115.984 47.511 C 115.979 54.211 115.547 60.961 113.549 67.399 C 113.448 67.734 113.347 68.071 113.243 68.416 C 107.4 87.466 94.764 99.78 78.013 109.659 C 75.409 111.201 72.83 112.785 70.247 114.361 C 69.182 115.011 68.115 115.658 67.047 116.301 C 66.211 116.807 65.381 117.322 64.555 117.845 C 60.715 120.223 60.715 120.223 58.45 119.761 C 57.284 119.261 57.284 119.261 56.076 118.526 C 55.848 118.39 55.62 118.254 55.385 118.112 C 54.594 117.636 53.809 117.149 53.024 116.662 C 52.408 116.282 51.792 115.903 51.175 115.525 C 49.807 114.681 48.441 113.832 47.076 112.981 C 45.204 111.816 43.32 110.672 41.432 109.532 C 28.77 101.878 18.03 93.245 11.173 79.847 C 10.988 79.49 10.988 79.49 10.799 79.123 C 6.74 71.143 4.165 62.129 4.123 53.15 C 4.119 52.775 4.116 52.4 4.113 52.013 C 4.103 50.779 4.097 49.545 4.091 48.311 C 4.089 47.888 4.087 47.465 4.085 47.03 C 4.075 44.797 4.067 42.563 4.061 40.33 C 4.057 38.482 4.045 36.634 4.03 34.786 C 4.011 32.552 4.002 30.317 3.999 28.083 C 3.996 27.233 3.99 26.382 3.981 25.532 C 3.968 24.343 3.968 23.155 3.971 21.967 C 3.965 21.616 3.959 21.265 3.952 20.903 C 3.969 19.209 4.024 18.463 5.071 17.074 C 6.035 16.368 6.745 15.94 7.876 15.594 C 8.384 15.433 8.384 15.433 8.902 15.269 C 9.269 15.16 9.637 15.051 10.016 14.937 C 10.41 14.815 10.803 14.692 11.208 14.566 C 12.519 14.16 13.831 13.763 15.145 13.365 C 16.068 13.081 16.991 12.796 17.914 12.51 C 19.899 11.897 21.885 11.287 23.873 10.682 C 26.909 9.755 29.943 8.82 32.978 7.884 C 36.586 6.771 40.197 5.657 43.808 4.549 C 44.066 4.47 44.325 4.39 44.591 4.309 C 45.837 3.926 47.084 3.545 48.331 3.164 C 50.308 2.56 52.281 1.953 54.243 1.304 C 54.528 1.211 54.813 1.117 55.106 1.021 C 55.806 0.79 56.503 0.554 57.201 0.318 C 60.27 -0.415 62.622 0.223 65.544 1.188 Z M 55.85 9.79 C 55.555 9.881 55.26 9.973 54.955 10.066 C 53.975 10.371 52.996 10.679 52.017 10.986 C 51.324 11.202 50.631 11.418 49.937 11.634 C 48.099 12.205 46.263 12.779 44.427 13.354 C 42.615 13.922 40.802 14.487 38.988 15.052 C 38.272 15.275 37.556 15.498 36.839 15.722 C 36.486 15.831 36.133 15.941 35.769 16.055 C 34.703 16.387 33.637 16.719 32.571 17.052 C 25.835 19.154 19.087 21.218 12.335 23.27 C 12.308 27.343 12.287 31.417 12.275 35.49 C 12.269 37.382 12.261 39.274 12.247 41.167 C 12.235 42.998 12.228 44.83 12.225 46.661 C 12.223 47.354 12.218 48.047 12.213 48.741 C 12.159 54.756 12.739 60.566 14.563 66.333 C 14.663 66.655 14.763 66.975 14.866 67.306 C 18.354 78.214 25.262 88.35 34.496 95.227 C 34.761 95.425 35.026 95.623 35.299 95.827 C 38.282 98.009 41.454 99.854 44.64 101.719 C 46.042 102.55 47.426 103.405 48.809 104.267 C 49.499 104.695 50.189 105.121 50.882 105.546 C 52.441 106.499 53.97 107.468 55.454 108.536 C 55.709 108.711 55.963 108.886 56.225 109.066 C 56.689 109.387 57.143 109.72 57.585 110.07 C 58.289 110.594 58.289 110.594 59.612 110.849 C 61.164 110.283 62.491 109.417 63.874 108.524 C 64.567 108.111 65.26 107.699 65.954 107.287 C 66.666 106.852 67.378 106.417 68.089 105.981 C 68.663 105.63 68.663 105.63 69.247 105.271 C 70.039 104.786 70.83 104.301 71.62 103.815 C 72.739 103.128 73.861 102.445 74.984 101.762 C 89.097 93.151 100.066 82.512 105.072 66.309 C 105.206 65.88 105.206 65.88 105.343 65.443 C 107.042 59.584 107.445 53.778 107.39 47.717 C 107.387 47.006 107.386 46.295 107.384 45.584 C 107.381 43.738 107.369 41.891 107.356 40.046 C 107.344 38.151 107.339 36.258 107.333 34.363 C 107.321 30.666 107.301 26.968 107.276 23.27 C 103.444 22.088 99.613 20.904 95.782 19.722 C 94 19.172 92.22 18.623 90.438 18.073 C 90.097 17.967 89.756 17.862 89.405 17.753 C 88.716 17.541 88.027 17.328 87.338 17.115 C 85.61 16.582 83.882 16.049 82.152 15.516 C 78.975 14.537 75.797 13.556 72.623 12.562 C 71.221 12.123 69.818 11.686 68.416 11.25 C 67.753 11.042 67.089 10.835 66.427 10.626 C 65.514 10.338 64.599 10.053 63.685 9.769 C 63.417 9.683 63.149 9.598 62.874 9.51 C 60.212 8.692 58.465 8.959 55.85 9.79 Z" />
  <path
    d="M 55.349 35.671 C 56.3 36.33 57.193 37.016 58.072 37.769 C 58.815 38.365 59.522 38.768 60.387 39.158 C 60.589 38.985 60.792 38.812 61 38.633 C 65.82 34.674 70.55 33.619 76.663 34.121 C 80.871 34.989 84.712 37.536 87.126 41.097 C 87.751 42.358 88.251 43.63 88.676 44.971 C 88.75 45.206 88.824 45.441 88.901 45.683 C 89.986 51.298 88.57 56.889 85.597 61.681 C 84.492 63.229 83.256 64.614 81.942 65.988 C 81.179 66.793 80.456 67.603 79.737 68.444 C 77.984 70.458 76.095 72.335 74.205 74.218 C 73.587 74.833 72.973 75.45 72.358 76.067 C 70.242 78.184 68.09 80.229 65.813 82.172 C 64.789 83.097 63.77 84.025 62.751 84.955 C 61.833 85.75 61.363 86.014 60.168 86.217 C 56.914 85.803 54.623 83.112 52.448 80.847 C 51.432 79.79 50.395 78.796 49.282 77.842 C 47.353 76.175 45.55 74.384 43.748 72.582 C 43.171 72.004 42.591 71.431 42.01 70.857 C 36.34 65.221 31.226 59.546 31.13 51.148 C 31.196 46.232 32.687 42.472 35.973 38.771 C 41.075 34.016 49.062 32.239 55.349 35.671 Z M 40.236 44.584 C 38.366 47.598 38.011 50.363 38.298 53.884 C 39.844 59.94 46.343 65.058 50.602 69.336 C 51.006 69.744 51.006 69.744 51.42 70.159 C 53.183 71.917 55.006 73.58 56.899 75.197 C 57.161 75.422 57.422 75.647 57.692 75.879 C 58.331 76.427 58.972 76.975 59.612 77.522 C 62.806 76.127 65.289 73.032 67.697 70.586 C 68.44 69.855 69.202 69.182 70.002 68.513 C 72.089 66.721 73.894 64.659 75.732 62.619 C 76.208 62.096 76.692 61.583 77.18 61.071 C 80.385 57.658 82.188 54.06 82.596 49.404 C 82.363 46.837 81.466 44.757 79.708 42.856 C 77.692 41.183 75.109 40.414 72.507 40.565 C 68.587 41.204 65.663 43.489 63.229 46.562 C 62.788 47.188 62.361 47.822 61.937 48.458 C 60.664 49.096 59.356 48.89 57.965 48.774 C 56.943 48.3 56.912 47.567 56.512 46.521 C 54.925 43.872 52.824 41.805 49.85 40.813 C 46.312 40.174 42.508 41.866 40.236 44.584 Z" />
</svg>