<svg xmlns="http://www.w3.org/2000/svg" viewBox="0 0 152 30" fill="#000">
	<title>COWON</title>
	<path fill-rule="evenodd" clip-rule="evenodd"
		d="M82.6639 26.7742H80.0707L72.6121 10.9672L65.1165 26.7742H62.5232L51.8658 2.23041H58.2565L63.9816 15.6221L70.1944 2.23041H75.1337L81.2078 15.6221L86.963 2.23041H93.3561L82.6639 26.7742Z">
	</path>
	<path fill-rule="evenodd" clip-rule="evenodd"
		d="M146.012 26.617H140.969L127.577 11.6236V26.617H121.573V2.3899H127.08L140.047 16.6692V2.3899H146.012V26.617Z">
	</path>
	<path fill-rule="evenodd" clip-rule="evenodd"
		d="M105.553 1.01004C98.1105 1.01004 92.0526 7.06105 92.0526 14.5035C92.0526 21.9459 98.1105 27.9992 105.553 27.9992C112.995 27.9992 119.051 21.9459 119.051 14.5035C119.051 7.05874 112.995 1.01004 105.553 1.01004ZM105.553 22.1054C101.358 22.1054 97.9464 18.6939 97.9464 14.5012C97.9464 10.3084 101.358 6.89695 105.553 6.89695C109.748 6.89695 113.159 10.3084 113.159 14.5012C113.159 18.6939 109.75 22.1054 105.553 22.1054Z">
	</path>
	<path fill-rule="evenodd" clip-rule="evenodd"
		d="M24.1694 14.5012C24.1694 22.4983 30.6757 29 38.6682 29C46.6653 29 53.1717 22.496 53.1717 14.5012C53.1717 6.50864 46.6653 0.00461997 38.6682 0.00461997C30.6757 0.00461997 24.1694 6.50864 24.1694 14.5012ZM27.3474 14.5012C27.3474 8.25831 32.4277 3.18267 38.6682 3.18267C44.9087 3.18267 49.9913 8.25831 49.9913 14.5012C49.9913 20.7417 44.9087 25.8219 38.6682 25.8219C32.4254 25.8219 27.3474 20.744 27.3474 14.5012Z">
	</path>
	<path fill-rule="evenodd" clip-rule="evenodd"
		d="M29.5963 14.5012C29.5963 19.5051 33.6665 23.5684 38.6682 23.5684C43.6722 23.5684 47.7378 19.5051 47.7378 14.5012C47.7378 9.50179 43.6699 5.43158 38.6682 5.43158C33.6665 5.43158 29.5963 9.50179 29.5963 14.5012ZM32.7767 14.5012C32.7767 11.2561 35.4208 8.60963 38.6682 8.60963C41.9179 8.60963 44.5597 11.2538 44.5597 14.5012C44.5597 17.7485 41.9179 20.3904 38.6682 20.3904C35.4208 20.3904 32.7767 17.7509 32.7767 14.5012Z">
	</path>
	<path fill-rule="evenodd" clip-rule="evenodd"
		d="M14.5012 25.8219C8.256 25.8219 3.18036 20.744 3.18036 14.5012C3.18036 8.26062 8.256 3.18498 14.5012 3.18498C17.6099 3.18498 20.425 4.44002 22.4729 6.47397L24.7218 4.22738C22.0984 1.61791 18.4835 0 14.5012 0C6.50403 0 0 6.50633 0 14.5012C0 22.496 6.50403 29 14.5012 29C18.4835 29 22.0984 27.3867 24.7218 24.7749L22.4729 22.5283C20.4274 24.56 17.6099 25.8219 14.5012 25.8219Z">
	</path>
	<path fill-rule="evenodd" clip-rule="evenodd"
		d="M14.5012 20.3927C11.2538 20.3927 8.60732 17.7509 8.60732 14.5035C8.60732 11.2561 11.2538 8.61425 14.5012 8.61425C16.1098 8.61425 17.5706 9.26373 18.6338 10.3154L20.885 8.06647C19.244 6.44162 16.9881 5.4362 14.5012 5.4362C9.49949 5.4362 5.42696 9.5041 5.42696 14.5035C5.42696 19.5051 9.49718 23.5754 14.5012 23.5754C16.9881 23.5754 19.244 22.5653 20.885 20.9428L18.6338 18.6939C17.5706 19.7432 16.1121 20.3927 14.5012 20.3927Z">
	</path>
</svg>