<svg version="1.1" id="Layer_1" xmlns="http://www.w3.org/2000/svg" xmlns:xlink="http://www.w3.org/1999/xlink" x="0px"
	y="0px" viewBox="0 0 283.5 111.7" style="enable-background:new 0 0 283.5 111.7;" xml:space="preserve">
	<style type="text/css">
		.st0 {
			fill: #000;
		}

		.st1 {
			enable-background: new;
		}
	</style>
	<g>
		<g>
			<path class="st0" d="M89,49.4c-1.7,2.2-3.2,3.7-4.6,4.4s-3,1.1-4.8,1.1c-2.1,0-4-0.5-5.6-1.4s-2.8-2.3-3.6-4
			c-0.8-1.8-1.2-3.9-1.2-6.3c0-2.9,0.4-5.4,1.3-7.4c0.9-1.9,2-3.4,3.5-4.3c1.5-0.9,3.2-1.3,5-1.3c2.2,0,4.1,0.6,5.7,1.8
			c1.6,1.2,2.8,3.1,3.6,5.9l0.1,0.2h1.2l-0.7-9.9h-1.3l-0.1,0.2c-0.1,0.6-0.4,1-0.7,1.4c-0.2,0.2-0.5,0.3-0.8,0.3
			c-0.1,0-0.4-0.1-1.1-0.4c-2.1-1-4.2-1.5-6.3-1.5c-2.7,0-5.3,0.6-7.5,1.9c-2.3,1.3-4.1,3.1-5.4,5.4c-1.3,2.3-2,4.9-2,7.7
			c0,3.4,1,6.5,3,9c2.7,3.4,6.5,5.2,11.3,5.2c2.7,0,5-0.6,7-1.7c2-1.1,3.7-3,5.2-5.5l0.2-0.3l-1.2-0.7L89,49.4z" />
			<path class="st0" d="M110.9,30.1h1.3c0.6,0,1.2,0.2,1.8,0.4c0.4,0.2,0.6,0.4,0.8,0.7c0.1,0.3,0.3,1,0.3,2.6v7.5h-12.8v-7.5
			c0-1.6,0.1-2.3,0.2-2.6c0.1-0.4,0.4-0.6,0.8-0.8c0.6-0.3,1.2-0.4,1.8-0.4h1.3v-1.4H93.5V30h1.3c0.6,0,1.2,0.2,1.8,0.4
			c0.4,0.2,0.6,0.4,0.7,0.7c0.1,0.3,0.3,1,0.3,2.6v17.6c0,1.9-0.2,2.7-0.4,2.9c-0.5,0.6-1.3,0.9-2.4,0.9h-1.3v1.4h12.9v-1.4h-1.3
			c-0.6,0-1.2-0.2-1.8-0.4c-0.4-0.2-0.6-0.4-0.8-0.7c-0.1-0.3-0.3-1-0.3-2.6v-8H115v8c0,1.9-0.3,2.7-0.5,2.9
			c-0.5,0.6-1.3,0.9-2.3,0.9h-1.3v1.4h12.9v-1.4h-1.3c-0.6,0-1.2-0.2-1.8-0.4c-0.4-0.2-0.6-0.4-0.7-0.7s-0.3-1-0.3-2.6V33.9
			c0-1.6,0.1-2.3,0.2-2.6c0.1-0.4,0.4-0.6,0.8-0.8c0.6-0.3,1.2-0.4,1.8-0.4h1.3v-1.4h-12.9L110.9,30.1L110.9,30.1z" />
			<path class="st0" d="M142,28.1c-3.8,0-7.2,1.2-9.9,3.6c-3.2,2.8-4.8,6.4-4.8,10.9c0,4.3,1.4,7.9,4.1,10.6
			c2.7,2.7,6.2,4.1,10.2,4.1s7.4-1.4,10.2-4.2s4.2-6.3,4.2-10.6c0-4.1-1.4-7.6-4.2-10.3C149.1,29.5,145.8,28.1,142,28.1z
			 M141.5,30.2c2.6,0,4.7,0.9,6.2,2.6c1.9,2.2,2.8,5.7,2.8,10.3c0,4.2-0.9,7.3-2.6,9.3c-1.7,1.9-3.9,2.9-6.5,2.9
			c-2.4,0-4.4-0.9-5.9-2.6c-2-2.3-2.9-5.7-2.9-10.1c0-4.3,1-7.5,2.8-9.7C137.1,31.1,139.1,30.2,141.5,30.2z" />
			<path class="st0" d="M188.5,55.3c-1.5-0.2-2.8-0.5-3.7-1.1s-2.1-1.8-3.4-3.5l-5.7-7.5c2.2-0.5,3.9-1.4,5.1-2.6
			c1.2-1.3,1.8-2.8,1.8-4.6c0-1.6-0.5-3.1-1.6-4.3c-1-1.2-2.3-2-3.8-2.4s-3.8-0.6-6.8-0.6h-10.8v1.4h1.4c1,0,1.7,0.3,2.2,0.8
			c0.2,0.2,0.5,0.9,0.5,3v17.7c0,1.9-0.2,2.5-0.4,2.8c-0.5,0.7-1.2,1-2.4,1h-1.4v1.4h12.9v-1.4H171c-1,0-1.7-0.3-2.2-0.8
			c-0.2-0.2-0.5-0.9-0.5-3V44c0.1,0,0.2,0,0.3,0c0.2,0,0.4,0,0.6,0c0.4,0,1,0,1.6,0l9.6,12.7l0.1,0.1h8.1v-1.3L188.5,55.3z
			 M177.2,36.3c0,1.7-0.6,3-2,4.1c-1.3,1.1-3.4,1.6-6,1.6c-0.1,0-0.3,0-0.5,0c-0.1,0-0.3,0-0.4,0V31.2c1.3-0.2,2.3-0.3,3-0.3
			c1.8,0,3.2,0.5,4.3,1.5C176.6,33.4,177.2,34.7,177.2,36.3z" />
		</g>
		<path class="st0" d="M217.9,34.9c-1.4-2.2-3.3-3.8-5.6-4.8c-2.3-0.9-5.6-1.4-9.9-1.4h-12v1.4h1.4c1,0,1.7,0.3,2.2,0.8
		c0.2,0.3,0.5,1,0.5,3v17.7c0,1.8-0.2,2.5-0.4,2.8c-0.5,0.7-1.2,1-2.3,1h-1.4v1.4h13.2c5.7,0,9.9-1.5,12.7-4.4
		c2.5-2.6,3.7-5.9,3.7-9.7C220,39.7,219.3,37.1,217.9,34.9z M214.5,42.8c0,3.6-1.1,6.6-3.2,8.7c-2.1,2.1-4.8,3.2-8,3.2
		c-1.1,0-2.6-0.2-4.2-0.5V31.4c1.5-0.3,2.9-0.5,4-0.5c3.3,0,6,1.1,8.1,3.2S214.5,39.1,214.5,42.8z" />
	</g>
	<path class="st0" d="M37,32.6c-5.1,0-9.1,4.1-9.1,9.1c0,5.1,4.1,9.1,9.1,9.1c5.1,0,9.1-4.1,9.1-9.1C46.2,36.7,42.1,32.6,37,32.6z
	 M41.3,44.4l-4.2,2.4l-4.2-2.4v-4.9l4.2-2.4l4.2,2.4V44.4z" />
	<g>
		<path class="st0" d="M242.6,78.8H39.4v-0.1c-18.8-1-33.2-16.6-33.2-36.3c0-20.3,15.4-36.2,35-36.2h201.4
		c19.7,0,35.1,15.9,35.1,36.3S262.3,78.8,242.6,78.8z M43,75.2h199.6c17.7,0,31.5-14.4,31.5-32.7S260.3,9.8,242.6,9.8H41.2
		C23.6,9.8,9.8,24.1,9.8,42.4s13.8,32.7,31.4,32.7L43,75.2L43,75.2z" />
	</g>
	<path class="st0" d="M246.4,32.7c-5.1,0-9.1,4.1-9.1,9.1c0,5.1,4.1,9.1,9.1,9.1c5.1,0,9.1-4.1,9.1-9.1S251.4,32.7,246.4,32.7z
	 M250.6,44.6l-4.2,2.4l-4.2-2.4v-4.9l4.2-2.4l4.2,2.4V44.6z" />
	<g class="st1">
		<path class="st0" d="M55.7,85.4l0.3,5h-0.3c-0.4-1.5-1.1-2.5-1.9-3.2c-0.8-0.7-1.8-1-3-1c-1,0-1.8,0.2-2.6,0.7
		c-0.8,0.5-1.4,1.3-1.8,2.3c-0.4,1.1-0.7,2.4-0.7,4c0,1.3,0.2,2.5,0.6,3.4c0.4,1,1.1,1.7,1.9,2.2s1.8,0.8,2.9,0.8
		c0.9,0,1.8-0.2,2.5-0.6c0.7-0.4,1.5-1.2,2.4-2.4l0.3,0.2c-0.7,1.3-1.6,2.2-2.6,2.8c-1,0.6-2.1,0.9-3.5,0.9c-2.4,0-4.3-0.9-5.6-2.7
		c-1-1.3-1.5-2.9-1.5-4.7c0-1.5,0.3-2.8,1-4c0.7-1.2,1.5-2.2,2.7-2.8c1.1-0.7,2.4-1,3.7-1c1.1,0,2.1,0.3,3.1,0.8
		c0.3,0.2,0.5,0.2,0.6,0.2c0.2,0,0.4-0.1,0.5-0.2c0.2-0.2,0.3-0.5,0.4-0.8H55.7z" />
		<path class="st0" d="M60.7,85v7.2c0.8-0.9,1.4-1.4,1.9-1.7c0.5-0.2,0.9-0.4,1.4-0.4c0.6,0,1,0.2,1.4,0.5c0.4,0.3,0.7,0.8,0.9,1.5
		c0.1,0.5,0.2,1.3,0.2,2.5v3.5c0,0.6,0,1,0.2,1.3c0.1,0.2,0.2,0.3,0.4,0.4s0.5,0.2,0.9,0.2v0.4h-4.8v-0.4h0.2c0.5,0,0.8-0.1,1-0.2
		c0.2-0.1,0.3-0.3,0.4-0.6c0-0.1,0-0.5,0-1v-3.5c0-1.1-0.1-1.8-0.2-2.1c-0.1-0.3-0.3-0.6-0.5-0.8c-0.2-0.2-0.5-0.3-0.9-0.3
		c-0.4,0-0.7,0.1-1.1,0.3c-0.4,0.2-0.8,0.6-1.4,1.1v5.2c0,0.7,0,1.1,0.1,1.3s0.2,0.3,0.4,0.4c0.2,0.1,0.6,0.2,1.1,0.2v0.4h-4.9v-0.4
		c0.4,0,0.8-0.1,1-0.2c0.1-0.1,0.3-0.2,0.3-0.4s0.1-0.6,0.1-1.2v-8.9c0-1.1,0-1.8-0.1-2.1s-0.1-0.4-0.2-0.5
		c-0.1-0.1-0.3-0.1-0.4-0.1c-0.2,0-0.4,0.1-0.7,0.2l-0.2-0.4l2.9-1.2H60.7z" />
		<path class="st0" d="M73.6,90.2c1.5,0,2.7,0.6,3.6,1.7c0.8,1,1.1,2.1,1.1,3.3c0,0.9-0.2,1.8-0.6,2.7c-0.4,0.9-1,1.6-1.7,2
		s-1.6,0.7-2.5,0.7c-1.5,0-2.7-0.6-3.5-1.8c-0.7-1-1.1-2.1-1.1-3.4c0-0.9,0.2-1.8,0.7-2.7c0.4-0.9,1-1.6,1.8-2
		C72,90.4,72.8,90.2,73.6,90.2z M73.3,90.9c-0.4,0-0.8,0.1-1.1,0.3c-0.4,0.2-0.7,0.6-0.9,1.2s-0.4,1.3-0.4,2.2
		c0,1.4,0.3,2.7,0.9,3.7s1.3,1.6,2.3,1.6c0.7,0,1.3-0.3,1.7-0.9s0.7-1.6,0.7-3c0-1.7-0.4-3.1-1.1-4.1C74.7,91.2,74.1,90.9,73.3,90.9
		z" />
		<path class="st0" d="M82.7,90.2v2.2c0.8-1.5,1.7-2.2,2.5-2.2c0.4,0,0.7,0.1,1,0.4c0.3,0.2,0.4,0.5,0.4,0.8c0,0.3-0.1,0.5-0.3,0.7
		c-0.2,0.2-0.4,0.3-0.7,0.3c-0.3,0-0.5-0.1-0.8-0.4c-0.3-0.2-0.5-0.4-0.7-0.4c-0.1,0-0.3,0.1-0.4,0.2c-0.3,0.3-0.7,0.8-1,1.5V98
		c0,0.5,0.1,1,0.2,1.2c0.1,0.2,0.3,0.4,0.5,0.5s0.6,0.2,1,0.2v0.4h-5v-0.4c0.5,0,0.9-0.1,1.1-0.2c0.2-0.1,0.3-0.3,0.4-0.5
		c0-0.1,0.1-0.5,0.1-1v-3.8c0-1.1,0-1.8-0.1-2c0-0.2-0.1-0.4-0.3-0.5c-0.1-0.1-0.3-0.2-0.5-0.2c-0.2,0-0.5,0.1-0.8,0.2l-0.1-0.4
		l3-1.2H82.7z" />
		<path class="st0" d="M94.1,99.2c-0.5,0.5-0.9,0.9-1.4,1.1c-0.5,0.2-1,0.3-1.5,0.3c-1.1,0-2-0.4-2.8-1.3c-0.8-0.9-1.2-2.1-1.2-3.5
		s0.4-2.7,1.3-3.9c0.9-1.2,2-1.8,3.4-1.8c0.9,0,1.6,0.3,2.1,0.8v-1.8c0-1.1,0-1.8-0.1-2.1s-0.1-0.4-0.3-0.5
		c-0.1-0.1-0.3-0.1-0.4-0.1c-0.2,0-0.4,0.1-0.7,0.2l-0.1-0.4l2.9-1.2h0.5v11.4c0,1.2,0,1.9,0.1,2.1c0.1,0.3,0.1,0.4,0.3,0.5
		s0.3,0.2,0.4,0.2c0.2,0,0.5-0.1,0.8-0.2l0.1,0.4l-2.9,1.2h-0.5V99.2z M94.1,98.4v-5.1c0-0.5-0.2-0.9-0.4-1.3s-0.5-0.7-0.9-0.9
		c-0.4-0.2-0.7-0.3-1-0.3c-0.6,0-1.2,0.3-1.7,0.8c-0.7,0.7-1,1.8-1,3.3c0,1.4,0.3,2.6,0.9,3.3c0.6,0.8,1.3,1.2,2.1,1.2
		C92.8,99.4,93.5,99.1,94.1,98.4z" />
		<path class="st0" d="M107.5,86.5v5.8h3.2c0.8,0,1.4-0.1,1.7-0.4c0.4-0.3,0.6-0.9,0.6-1.7h0.4v5.1H113c-0.1-0.7-0.2-1.2-0.3-1.4
		c-0.1-0.3-0.3-0.4-0.6-0.6c-0.3-0.1-0.7-0.2-1.4-0.2h-3.2v4.8c0,0.6,0,1,0.1,1.2c0.1,0.1,0.2,0.3,0.3,0.3c0.1,0.1,0.4,0.1,0.8,0.1
		h2.5c0.8,0,1.4-0.1,1.8-0.2c0.4-0.1,0.7-0.3,1.1-0.7c0.4-0.4,0.9-1.1,1.4-2h0.4l-1.3,3.7h-11.2v-0.4h0.5c0.3,0,0.7-0.1,1-0.2
		c0.2-0.1,0.4-0.3,0.5-0.5c0.1-0.2,0.1-0.7,0.1-1.4v-9.5c0-0.9-0.1-1.5-0.3-1.7c-0.3-0.3-0.7-0.4-1.3-0.4h-0.5v-0.4h11.2l0.2,3.2
		h-0.4c-0.2-0.8-0.3-1.3-0.5-1.6s-0.5-0.5-0.8-0.7c-0.3-0.1-0.8-0.2-1.5-0.2H107.5z" />
		<path class="st0" d="M120.4,85v13.1c0,0.6,0,1,0.1,1.2c0.1,0.2,0.2,0.4,0.4,0.5c0.2,0.1,0.5,0.2,1,0.2v0.4h-4.8v-0.4
		c0.5,0,0.8,0,0.9-0.1c0.2-0.1,0.3-0.2,0.4-0.5c0.1-0.2,0.1-0.6,0.1-1.2v-8.9c0-1.1,0-1.8-0.1-2c-0.1-0.3-0.1-0.4-0.2-0.5
		c-0.1-0.1-0.3-0.1-0.4-0.1c-0.2,0-0.4,0.1-0.7,0.2l-0.2-0.4L120,85H120.4z" />
		<path class="st0" d="M124.8,94.2c0,1.5,0.3,2.6,1.1,3.4c0.7,0.8,1.6,1.2,2.5,1.2c0.6,0,1.2-0.2,1.7-0.5c0.5-0.4,0.9-1,1.2-1.8
		l0.3,0.2c-0.2,1-0.6,1.9-1.3,2.7c-0.7,0.8-1.6,1.2-2.7,1.2c-1.2,0-2.2-0.5-3-1.4c-0.8-0.9-1.3-2.2-1.3-3.7c0-1.7,0.4-3,1.3-3.9
		c0.9-0.9,1.9-1.4,3.2-1.4c1.1,0,2,0.4,2.7,1.1c0.7,0.7,1.1,1.7,1.1,2.9H124.8z M124.8,93.5h4.6c0-0.6-0.1-1.1-0.2-1.3
		c-0.2-0.4-0.4-0.7-0.8-0.9s-0.7-0.3-1.1-0.3c-0.6,0-1.1,0.2-1.6,0.7C125.2,92.1,124.9,92.7,124.8,93.5z" />
		<path class="st0" d="M141.3,96.6c-0.3,1.3-0.8,2.3-1.6,3c-0.8,0.7-1.6,1-2.6,1c-1.1,0-2.1-0.5-2.9-1.4c-0.8-0.9-1.2-2.2-1.2-3.8
		c0-1.5,0.5-2.8,1.4-3.8c0.9-1,2-1.5,3.3-1.5c1,0,1.8,0.3,2.4,0.8c0.6,0.5,0.9,1,0.9,1.6c0,0.3-0.1,0.5-0.3,0.7
		c-0.2,0.2-0.4,0.3-0.7,0.3c-0.4,0-0.7-0.1-1-0.4c-0.1-0.2-0.2-0.4-0.2-0.9c0-0.4-0.2-0.7-0.4-1c-0.3-0.2-0.6-0.3-1-0.3
		c-0.7,0-1.3,0.3-1.7,0.8c-0.6,0.7-0.9,1.6-0.9,2.8c0,1.2,0.3,2.2,0.9,3.1c0.6,0.9,1.4,1.3,2.3,1.3c0.7,0,1.3-0.2,1.9-0.7
		c0.4-0.3,0.8-0.9,1.1-1.8L141.3,96.6z" />
		<path class="st0"
			d="M145.6,87.2v3.2h2.3v0.8h-2.3v6.4c0,0.6,0.1,1.1,0.3,1.3s0.4,0.3,0.7,0.3c0.2,0,0.5-0.1,0.7-0.2
		c0.2-0.1,0.4-0.4,0.5-0.7h0.4c-0.3,0.7-0.6,1.2-1.1,1.6c-0.5,0.4-0.9,0.5-1.4,0.5c-0.3,0-0.7-0.1-1-0.3c-0.3-0.2-0.5-0.4-0.7-0.8
		c-0.2-0.3-0.2-0.9-0.2-1.6v-6.6h-1.6v-0.4c0.4-0.2,0.8-0.4,1.2-0.8c0.4-0.4,0.8-0.8,1.1-1.3c0.2-0.3,0.4-0.8,0.7-1.5H145.6z" />
		<path class="st0" d="M151.7,90.2v2.2c0.8-1.5,1.7-2.2,2.5-2.2c0.4,0,0.7,0.1,1,0.4c0.3,0.2,0.4,0.5,0.4,0.8c0,0.3-0.1,0.5-0.3,0.7
		s-0.4,0.3-0.7,0.3c-0.3,0-0.5-0.1-0.8-0.4c-0.3-0.2-0.5-0.4-0.7-0.4c-0.1,0-0.3,0.1-0.4,0.2c-0.3,0.3-0.7,0.8-1,1.5V98
		c0,0.5,0.1,1,0.2,1.2c0.1,0.2,0.3,0.4,0.5,0.5s0.6,0.2,1,0.2v0.4h-5v-0.4c0.5,0,0.9-0.1,1.1-0.2c0.2-0.1,0.3-0.3,0.4-0.5
		c0-0.1,0.1-0.5,0.1-1v-3.8c0-1.1,0-1.8-0.1-2c0-0.2-0.1-0.4-0.3-0.5c-0.1-0.1-0.3-0.2-0.5-0.2c-0.2,0-0.5,0.1-0.8,0.2l-0.1-0.4
		l3-1.2H151.7z" />
		<path class="st0" d="M161,90.2c1.5,0,2.7,0.6,3.6,1.7c0.8,1,1.1,2.1,1.1,3.3c0,0.9-0.2,1.8-0.6,2.7s-1,1.6-1.7,2s-1.6,0.7-2.5,0.7
		c-1.5,0-2.7-0.6-3.5-1.8c-0.7-1-1.1-2.1-1.1-3.4c0-0.9,0.2-1.8,0.7-2.7c0.4-0.9,1-1.6,1.8-2C159.4,90.4,160.1,90.2,161,90.2z
		 M160.6,90.9c-0.4,0-0.8,0.1-1.1,0.3c-0.4,0.2-0.7,0.6-0.9,1.2s-0.4,1.3-0.4,2.2c0,1.4,0.3,2.7,0.9,3.7s1.3,1.6,2.2,1.6
		c0.7,0,1.3-0.3,1.7-0.9s0.7-1.6,0.7-3c0-1.7-0.4-3.1-1.1-4.1C162.1,91.2,161.4,90.9,160.6,90.9z" />
		<path class="st0" d="M170,92.3c1.2-1.4,2.3-2.1,3.3-2.1c0.5,0,1,0.1,1.4,0.4c0.4,0.3,0.7,0.7,0.9,1.3c0.2,0.4,0.2,1.1,0.2,2v4.2
		c0,0.6,0,1,0.2,1.3c0.1,0.2,0.2,0.3,0.4,0.4c0.2,0.1,0.5,0.2,1,0.2v0.4h-4.9v-0.4h0.2c0.5,0,0.8-0.1,1-0.2c0.2-0.1,0.3-0.3,0.4-0.6
		c0-0.1,0-0.4,0-1v-4c0-0.9-0.1-1.5-0.3-1.9c-0.2-0.4-0.6-0.6-1.2-0.6c-0.9,0-1.7,0.5-2.5,1.4v5.2c0,0.7,0,1.1,0.1,1.2
		c0.1,0.2,0.2,0.4,0.4,0.5c0.2,0.1,0.5,0.1,1.1,0.1v0.4h-4.9v-0.4h0.2c0.5,0,0.8-0.1,1-0.4c0.2-0.3,0.3-0.7,0.3-1.5v-3.7
		c0-1.2,0-1.9-0.1-2.2s-0.1-0.4-0.2-0.5c-0.1-0.1-0.3-0.1-0.4-0.1c-0.2,0-0.4,0.1-0.7,0.2l-0.2-0.4l3-1.2h0.5V92.3z" />
		<path class="st0" d="M181.5,90.2v7.9c0,0.6,0,1,0.1,1.2c0.1,0.2,0.2,0.4,0.4,0.5c0.2,0.1,0.5,0.2,1,0.2v0.4h-4.8v-0.4
		c0.5,0,0.8,0,1-0.1s0.3-0.2,0.4-0.5s0.1-0.6,0.1-1.2v-3.8c0-1.1,0-1.8-0.1-2.1c0-0.2-0.1-0.4-0.2-0.5c-0.1-0.1-0.3-0.1-0.4-0.1
		c-0.2,0-0.4,0.1-0.7,0.2l-0.2-0.4l3-1.2H181.5z M180.6,85c0.3,0,0.6,0.1,0.8,0.3c0.2,0.2,0.3,0.5,0.3,0.8s-0.1,0.6-0.3,0.8
		c-0.2,0.2-0.5,0.3-0.8,0.3s-0.6-0.1-0.8-0.3s-0.3-0.5-0.3-0.8s0.1-0.6,0.3-0.8C180.1,85.1,180.3,85,180.6,85z" />
		<path class="st0" d="M192.6,96.6c-0.3,1.3-0.8,2.3-1.6,3c-0.8,0.7-1.6,1-2.6,1c-1.1,0-2.1-0.5-2.9-1.4s-1.2-2.2-1.2-3.8
		c0-1.5,0.5-2.8,1.4-3.8c0.9-1,2-1.5,3.3-1.5c1,0,1.8,0.3,2.4,0.8c0.6,0.5,0.9,1,0.9,1.6c0,0.3-0.1,0.5-0.3,0.7
		c-0.2,0.2-0.4,0.3-0.7,0.3c-0.4,0-0.7-0.1-1-0.4c-0.1-0.2-0.2-0.4-0.2-0.9c0-0.4-0.2-0.7-0.4-1c-0.3-0.2-0.6-0.3-1-0.3
		c-0.7,0-1.3,0.3-1.7,0.8c-0.6,0.7-0.9,1.6-0.9,2.8c0,1.2,0.3,2.2,0.9,3.1c0.6,0.9,1.4,1.3,2.3,1.3c0.7,0,1.3-0.2,1.9-0.7
		c0.4-0.3,0.8-0.9,1.1-1.8L192.6,96.6z" />
		<path class="st0" d="M200.4,90.2v3.4H200c-0.3-1.1-0.6-1.8-1-2.1c-0.4-0.4-1-0.6-1.6-0.6c-0.5,0-0.9,0.1-1.2,0.4s-0.5,0.6-0.5,0.9
		c0,0.4,0.1,0.7,0.3,1c0.2,0.3,0.7,0.6,1.4,0.9l1.6,0.8c1.5,0.7,2.2,1.6,2.2,2.8c0,0.9-0.3,1.6-1,2.2c-0.7,0.5-1.4,0.8-2.3,0.8
		c-0.6,0-1.3-0.1-2.1-0.3c-0.2-0.1-0.4-0.1-0.6-0.1c-0.2,0-0.3,0.1-0.4,0.3h-0.4v-3.5h0.4c0.2,1,0.6,1.8,1.1,2.3s1.2,0.8,1.9,0.8
		c0.5,0,0.9-0.1,1.2-0.4c0.3-0.3,0.5-0.6,0.5-1c0-0.5-0.2-0.9-0.5-1.2c-0.3-0.3-1-0.8-2.1-1.3s-1.7-1-2-1.4
		c-0.3-0.4-0.5-0.9-0.5-1.5c0-0.8,0.3-1.5,0.8-2c0.6-0.5,1.3-0.8,2.2-0.8c0.4,0,0.9,0.1,1.4,0.2c0.4,0.1,0.6,0.2,0.7,0.2
		c0.1,0,0.2,0,0.3-0.1s0.1-0.2,0.2-0.3H200.4z" />
		<path class="st0" d="M220,96.3l0.4,0.1l-1.2,4h-11.3v-0.4h0.5c0.6,0,1.1-0.2,1.3-0.6c0.2-0.2,0.2-0.8,0.2-1.6v-9.4
		c0-0.9-0.1-1.5-0.3-1.7c-0.3-0.3-0.7-0.5-1.2-0.5h-0.5v-0.4h6.6v0.4c-0.8,0-1.3,0.1-1.6,0.2s-0.5,0.3-0.6,0.6s-0.2,0.8-0.2,1.6v9.2
		c0,0.6,0.1,1,0.2,1.2c0.1,0.2,0.2,0.3,0.4,0.3s0.7,0.1,1.7,0.1h1.1c1.1,0,1.9-0.1,2.4-0.2s0.9-0.5,1.2-0.9
		C219.3,97.8,219.6,97.2,220,96.3z" />
		<path class="st0"
			d="M224.4,87.2v3.2h2.3v0.8h-2.3v6.4c0,0.6,0.1,1.1,0.3,1.3s0.4,0.3,0.7,0.3c0.2,0,0.5-0.1,0.7-0.2
		c0.2-0.1,0.4-0.4,0.5-0.7h0.4c-0.3,0.7-0.6,1.2-1.1,1.6c-0.5,0.4-0.9,0.5-1.4,0.5c-0.3,0-0.7-0.1-1-0.3c-0.3-0.2-0.5-0.4-0.7-0.8
		c-0.2-0.3-0.2-0.9-0.2-1.6v-6.6H221v-0.4c0.4-0.2,0.8-0.4,1.2-0.8c0.4-0.4,0.8-0.8,1.1-1.3c0.2-0.3,0.4-0.8,0.7-1.5H224.4z" />
		<path class="st0" d="M234.6,99.2c-0.5,0.5-0.9,0.9-1.4,1.1c-0.5,0.2-1,0.3-1.5,0.3c-1.1,0-2-0.4-2.8-1.3c-0.8-0.9-1.2-2.1-1.2-3.5
		s0.4-2.7,1.3-3.9c0.9-1.2,2-1.8,3.4-1.8c0.9,0,1.6,0.3,2.1,0.8v-1.8c0-1.1,0-1.8-0.1-2.1s-0.1-0.4-0.3-0.5s-0.3-0.1-0.4-0.1
		c-0.2,0-0.4,0.1-0.7,0.2l-0.1-0.4l2.9-1.2h0.5v11.4c0,1.2,0,1.9,0.1,2.1c0.1,0.3,0.1,0.4,0.3,0.5s0.3,0.2,0.4,0.2
		c0.2,0,0.5-0.1,0.8-0.2l0.1,0.4l-2.9,1.2h-0.5V99.2z M234.6,98.4v-5.1c0-0.5-0.2-0.9-0.4-1.3s-0.5-0.7-0.9-0.9
		c-0.4-0.2-0.7-0.3-1-0.3c-0.6,0-1.2,0.3-1.7,0.8c-0.7,0.7-1,1.8-1,3.3c0,1.4,0.3,2.6,0.9,3.3c0.6,0.8,1.3,1.2,2.1,1.2
		C233.3,99.4,234,99.1,234.6,98.4z" />
		<path class="st0" d="M240.7,98.2c0.3,0,0.6,0.1,0.8,0.3c0.2,0.2,0.3,0.5,0.3,0.8s-0.1,0.6-0.3,0.8c-0.2,0.2-0.5,0.3-0.8,0.3
		s-0.6-0.1-0.8-0.3c-0.2-0.2-0.3-0.5-0.3-0.8c0-0.3,0.1-0.6,0.3-0.8C240.1,98.3,240.4,98.2,240.7,98.2z" />
	</g>
</svg>