<svg xmlns="http://www.w3.org/2000/svg" viewBox="0 0 464.81 76.42"><defs><style>.cls-1{fill:#ee2338;}</style></defs><title>자산 1</title><g id="레이어_2" data-name="레이어 2"><g id="Layer_1" data-name="Layer 1"><rect class="cls-1" width="11.88" height="76.42"/><path class="cls-1" d="M107.42,42.4c10.86-4.51,12.48-14.34,12.48-19.79,0-10.73-6.08-18.74-16.28-21.42C100.47.35,98.09,0,91.53,0H39.64V76.42H51.4V46.18H87.13l23.55,30.24H126l-26-32.1A33.48,33.48,0,0,0,107.42,42.4Zm.4-19.37A12,12,0,0,1,105.14,31c-3.87,5-10.26,5.37-17,5.37H51.3V10h41c5.64,0,10.57.45,13.69,6A13.75,13.75,0,0,1,107.82,23Z"/><rect class="cls-1" x="146.05" width="11.87" height="76.42"/><polygon class="cls-1" points="294.92 41.69 352.31 41.69 352.31 31.74 294.92 31.74 294.92 10.27 353.81 10.27 353.81 0 283.26 0 283.26 76.42 354.38 76.42 354.38 66.14 294.92 66.14 294.92 41.69"/><path class="cls-1" d="M438.77,44.32a33.44,33.44,0,0,0,7.47-1.92c10.86-4.51,12.48-14.34,12.48-19.79,0-10.73-6.09-18.74-16.28-21.42C439.29.35,436.91,0,430.34,0H378.46V76.42h11.77V46.18H426L449.5,76.42h15.31ZM446.64,23A12,12,0,0,1,444,31c-3.87,5-10.26,5.37-17,5.37H390.12V10h41c5.64,0,10.57.45,13.69,6A13.73,13.73,0,0,1,446.64,23Z"/><polygon class="cls-1" points="221.11 67.71 189.27 0 176.32 0 212.88 76.14 213.02 76.42 228.83 76.42 264.88 0 252.04 0 221.11 67.71"/></g></g></svg>