<svg viewBox="0 0 120 120" xmlns="http://www.w3.org/2000/svg">
  <path
    d="M 40.057 83.078 C 39.222 83.082 38.421 82.75 37.834 82.155 C 36.609 80.926 36.609 78.938 37.834 77.709 L 77.679 37.864 C 79.449 36.216 82.343 37.101 82.888 39.462 C 83.123 40.477 82.838 41.547 82.125 42.31 L 42.28 82.155 C 41.693 82.75 40.892 83.082 40.057 83.078 Z" />
  <path
    d="M 43.664 57.325 C 33.17 57.313 26.627 45.946 31.883 36.866 C 37.142 27.786 50.257 27.798 55.492 36.895 C 58.57 42.239 57.677 48.983 53.311 53.341 C 50.744 55.891 47.279 57.321 43.664 57.325 Z M 43.664 36.354 C 38.014 36.371 34.5 42.499 37.339 47.385 C 40.179 52.267 47.242 52.246 50.052 47.347 C 51.704 44.466 51.218 40.838 48.865 38.493 C 47.485 37.118 45.614 36.35 43.664 36.354 Z" />
  <path
    d="M 76.295 89.956 C 65.801 89.943 59.258 78.577 64.513 69.497 C 69.773 60.416 82.888 60.429 88.122 69.526 C 91.201 74.87 90.308 81.614 85.941 85.972 C 83.375 88.522 79.91 89.952 76.295 89.956 Z M 83.719 83.749 Z M 76.295 68.985 C 70.645 69.002 67.131 75.13 69.97 80.016 C 72.809 84.898 79.872 84.877 82.683 79.978 C 84.335 77.097 83.849 73.469 81.496 71.124 C 80.116 69.748 78.245 68.981 76.295 68.985 Z" />
  <path
    d="M 59.979 119.944 C 57.857 119.953 55.844 119.013 54.485 117.386 L 52.388 114.869 C 51.847 114.228 50.916 114.085 50.207 114.534 L 47.439 116.296 C 43.656 118.619 38.69 117.004 36.995 112.898 L 35.779 109.836 C 35.452 109.069 34.621 108.641 33.808 108.83 L 30.62 109.627 C 28.565 110.172 26.376 109.757 24.664 108.494 C 22.962 107.244 21.892 105.315 21.728 103.21 L 21.728 99.938 C 21.687 99.087 20.99 98.407 20.135 98.386 L 16.905 98.135 C 14.787 98.017 12.833 96.956 11.579 95.241 C 10.324 93.559 9.855 91.424 10.278 89.369 L 11.075 86.181 C 11.281 85.368 10.853 84.52 10.069 84.21 L 7.049 82.994 C 2.922 81.345 1.294 76.363 3.652 72.592 L 5.455 69.74 C 5.883 69.006 5.723 68.071 5.078 67.517 L 2.561 65.42 C -0.853 62.572 -0.853 57.325 2.561 54.473 L 5.078 52.376 C 5.753 51.86 5.916 50.912 5.455 50.195 L 3.652 47.427 C 2.511 45.644 2.234 43.442 2.897 41.429 C 3.563 39.399 5.098 37.768 7.091 36.983 L 10.111 35.767 C 10.895 35.457 11.323 34.614 11.117 33.796 L 10.278 30.65 C 9.775 28.608 10.19 26.448 11.411 24.736 C 12.661 23.013 14.611 21.935 16.737 21.8 L 19.967 21.8 C 20.823 21.742 21.502 21.062 21.561 20.207 L 21.561 16.935 C 21.724 14.83 22.794 12.9 24.497 11.651 C 26.204 10.25 28.477 9.738 30.62 10.266 L 33.766 11.063 C 34.584 11.273 35.427 10.841 35.737 10.057 L 36.953 6.995 C 38.639 2.88 43.626 1.278 47.397 3.64 L 50.165 5.359 C 50.874 5.808 51.805 5.665 52.346 5.024 L 54.443 2.507 C 57.375 -0.76 62.5 -0.76 65.432 2.507 L 67.529 5.024 C 68.07 5.665 69.001 5.808 69.71 5.359 L 72.562 3.64 C 76.333 1.278 81.319 2.88 83.006 6.995 L 84.222 10.057 C 84.532 10.841 85.375 11.273 86.193 11.063 L 89.339 10.266 C 91.394 9.721 93.583 10.141 95.295 11.399 C 96.997 12.649 98.067 14.578 98.23 16.684 L 98.44 19.955 C 98.499 20.811 99.178 21.49 100.034 21.549 L 103.263 21.549 C 105.39 21.683 107.34 22.761 108.59 24.485 C 109.874 26.267 110.276 28.536 109.681 30.65 L 108.884 33.838 C 108.678 34.656 109.106 35.499 109.89 35.809 L 112.91 37.025 C 114.902 37.81 116.437 39.441 117.104 41.471 C 117.742 43.476 117.448 45.661 116.307 47.427 L 114.546 50.195 C 114.105 50.917 114.269 51.848 114.923 52.376 L 117.44 54.473 C 120.854 57.325 120.854 62.572 117.44 65.42 L 114.923 67.517 C 114.256 68.062 114.114 69.023 114.588 69.74 L 116.307 72.466 C 118.698 76.245 117.067 81.266 112.91 82.91 L 109.89 84.126 C 109.106 84.436 108.678 85.284 108.884 86.097 L 109.681 89.285 C 110.18 91.34 109.764 93.513 108.548 95.241 C 107.294 96.956 105.34 98.017 103.222 98.135 L 99.992 98.386 C 99.136 98.407 98.44 99.087 98.398 99.938 L 98.188 103.21 C 98.025 105.315 96.955 107.244 95.253 108.494 C 93.541 109.757 91.352 110.172 89.297 109.627 L 86.151 108.83 C 85.338 108.641 84.507 109.069 84.18 109.836 L 82.964 112.898 C 81.269 117.004 76.303 118.619 72.52 116.296 L 69.752 114.534 C 69.043 114.085 68.112 114.228 67.571 114.869 L 65.474 117.386 C 64.115 119.013 62.102 119.953 59.979 119.944 Z M 51.088 108.83 C 53.21 108.826 55.223 109.761 56.582 111.388 L 58.679 113.905 C 59.367 114.698 60.592 114.698 61.28 113.905 L 63.377 111.388 C 65.663 108.712 69.555 108.092 72.562 109.92 L 75.33 111.682 C 75.787 111.879 76.299 111.879 76.756 111.682 C 77.247 111.535 77.637 111.162 77.805 110.675 L 79.021 107.655 C 80.376 104.359 83.958 102.568 87.409 103.461 L 90.555 104.258 C 91.046 104.384 91.566 104.292 91.981 104.007 C 92.371 103.7 92.614 103.243 92.652 102.748 L 92.862 99.519 C 93.122 95.95 95.961 93.114 99.531 92.85 L 102.802 92.64 C 103.297 92.611 103.75 92.347 104.018 91.927 C 104.341 91.546 104.45 91.026 104.312 90.543 L 103.515 87.356 C 102.639 83.908 104.425 80.335 107.709 78.967 L 110.729 77.793 C 111.186 77.6 111.539 77.218 111.694 76.744 C 111.912 76.296 111.912 75.771 111.694 75.318 L 109.974 72.592 C 108.057 69.568 108.666 65.596 111.4 63.281 L 113.917 61.184 C 114.277 60.899 114.491 60.471 114.504 60.01 C 114.508 59.502 114.273 59.024 113.875 58.709 L 111.4 56.612 C 108.724 54.326 108.099 50.434 109.932 47.427 L 111.694 44.659 C 111.912 44.223 111.912 43.711 111.694 43.275 C 111.555 42.792 111.199 42.407 110.729 42.226 L 107.709 41.01 C 104.425 39.643 102.639 36.073 103.515 32.621 L 104.312 29.476 C 104.45 28.981 104.341 28.452 104.018 28.05 C 103.729 27.635 103.268 27.375 102.76 27.337 L 99.531 27.127 C 95.97 26.888 93.126 24.061 92.862 20.5 L 92.652 17.229 C 92.614 16.734 92.371 16.277 91.981 15.971 C 91.566 15.685 91.046 15.597 90.555 15.719 L 87.409 16.516 C 83.958 17.413 80.376 15.622 79.021 12.322 L 77.805 9.302 C 77.671 8.744 77.285 8.278 76.756 8.044 C 76.274 7.901 75.754 7.981 75.33 8.253 L 72.562 9.973 C 69.538 11.856 65.591 11.231 63.293 8.505 L 61.196 5.988 C 60.508 5.196 59.283 5.196 58.595 5.988 L 56.498 8.505 C 54.221 11.139 50.383 11.76 47.397 9.973 L 44.629 8.253 C 44.205 7.981 43.685 7.901 43.203 8.044 C 42.729 8.224 42.351 8.585 42.154 9.05 L 40.938 12.07 C 39.583 15.371 36.001 17.162 32.549 16.264 L 29.32 15.551 C 28.829 15.43 28.309 15.518 27.894 15.803 C 27.504 16.109 27.261 16.566 27.223 17.061 L 27.223 20.333 C 26.95 23.969 23.989 26.821 20.344 26.959 L 17.073 27.169 C 16.582 27.219 16.138 27.479 15.857 27.882 C 15.534 28.285 15.425 28.813 15.563 29.308 L 16.36 32.454 C 17.236 35.906 15.45 39.475 12.166 40.842 L 9.146 42.058 C 8.676 42.239 8.32 42.625 8.181 43.107 C 7.963 43.543 7.963 44.055 8.181 44.491 L 9.901 47.259 C 11.818 50.283 11.209 54.259 8.475 56.57 L 5.958 58.667 C 5.593 59.016 5.409 59.51 5.455 60.01 C 5.459 60.517 5.69 60.995 6.084 61.31 L 8.559 63.365 C 11.26 65.659 11.885 69.576 10.027 72.592 L 8.265 75.36 C 8.047 75.813 8.047 76.337 8.265 76.786 C 8.42 77.26 8.773 77.642 9.23 77.835 L 12.25 79.009 C 15.534 80.376 17.32 83.95 16.444 87.398 L 15.647 90.585 C 15.508 91.067 15.618 91.588 15.94 91.969 C 16.221 92.397 16.691 92.661 17.199 92.682 L 20.428 92.892 C 23.998 93.156 26.837 95.991 27.097 99.561 L 27.097 102.79 C 27.135 103.285 27.378 103.742 27.768 104.048 C 28.183 104.334 28.703 104.426 29.194 104.3 L 32.34 103.503 C 35.787 102.627 39.361 104.413 40.728 107.697 L 41.944 110.717 C 42.112 111.204 42.502 111.577 42.993 111.724 C 43.45 111.917 43.962 111.917 44.419 111.724 L 47.397 109.92 C 48.508 109.233 49.783 108.859 51.088 108.83 Z" />
</svg>