<svg viewBox="0 0 120 120" xmlns="http://www.w3.org/2000/svg">
  <path
    d="M 90.058 82.549 C 89.914 81.769 89.44 81.521 88.762 81.525 C 84.624 81.549 80.486 81.499 76.348 81.565 C 72.536 81.627 68.722 81.535 64.908 81.519 C 62.474 81.509 60.04 81.531 57.606 81.501 C 56.702 81.491 56.176 81.749 55.794 82.689 C 54.226 86.535 50.138 88.729 46.356 87.797 C 43.468 87.085 41.626 85.179 40.724 82.385 C 40.516 81.739 40.194 81.515 39.576 81.517 C 35.736 81.539 31.892 81.461 28.056 81.593 C 24.83 81.703 23.118 79.529 22.43 77.325 C 21.822 75.375 22.596 73.595 22.772 71.741 C 22.792 71.529 22.848 71.323 22.884 71.129 C 22.62 70.833 22.302 70.941 22.022 70.941 C 15.504 70.933 8.984 70.931 2.464 70.933 C 1.65 70.935 0.874 70.829 0.374 70.107 C -0.506 68.837 0.242 67.319 1.818 67.135 C 1.98 67.117 2.142 67.125 2.306 67.125 C 11.746 67.123 21.186 67.127 30.628 67.119 C 31.312 67.117 31.92 67.251 32.362 67.809 C 32.814 68.381 32.952 69.005 32.666 69.707 C 32.322 70.545 31.634 70.881 30.81 70.919 C 29.73 70.971 28.646 70.959 27.564 70.929 C 26.944 70.913 26.638 71.059 26.6 71.771 C 26.558 72.541 26.368 73.311 26.168 74.061 C 25.996 74.703 25.958 75.343 25.996 75.989 C 26.068 77.181 26.802 77.861 27.994 77.863 C 31.864 77.867 35.732 77.855 39.6 77.877 C 40.206 77.879 40.49 77.707 40.678 77.087 C 41.652 73.853 43.688 71.611 47.02 70.759 C 50.592 69.845 54.188 71.597 55.78 74.953 C 56.116 75.657 56.442 76.377 56.482 77.173 C 56.51 77.699 56.778 77.873 57.268 77.867 C 58.24 77.855 59.214 77.863 60.188 77.863 C 65.598 77.863 71.008 77.833 76.418 77.881 C 78.002 77.893 78.616 77.437 78.962 75.415 C 79.322 73.319 79.616 71.213 80.018 69.123 C 80.378 67.247 80.63 65.349 80.934 63.461 C 81.246 61.519 81.556 59.577 81.88 57.639 C 82.212 55.649 82.564 53.663 82.898 51.673 C 83.24 49.627 83.572 47.579 83.904 45.531 C 84.16 43.939 84.392 42.343 84.668 40.753 C 84.786 40.065 84.924 39.379 85.038 38.689 C 85.358 36.763 84.54 35.741 82.586 35.741 C 66.924 35.739 51.262 35.765 35.6 35.707 C 33.16 35.697 32.946 36.677 32.628 38.361 C 32.45 39.313 32.298 40.269 32.084 41.211 C 31.954 41.781 32.284 41.797 32.662 41.799 C 34.178 41.805 35.692 41.805 37.208 41.805 C 38.37 41.807 39.534 41.797 40.696 41.809 C 41.786 41.821 42.504 42.513 42.53 43.549 C 42.556 44.615 41.832 45.389 40.74 45.441 C 40.282 45.463 39.82 45.449 39.362 45.449 C 28.812 45.451 18.262 45.427 7.712 45.477 C 6.058 45.485 5.246 44.151 5.758 42.855 C 6.078 42.041 6.72 41.791 7.57 41.793 C 13.766 41.811 19.96 41.803 26.154 41.803 C 28.09 41.803 28.098 41.805 28.502 39.941 C 28.754 38.783 28.952 37.613 29.224 36.461 C 29.936 33.445 32.176 31.823 35.272 32.037 C 35.704 32.067 36.138 32.057 36.57 32.057 C 51.502 32.055 66.434 32.049 81.366 32.059 C 82.256 32.061 83.136 31.919 84.036 32.035 C 86.304 32.329 87.662 33.669 88.464 35.701 C 88.584 36.001 88.77 36.319 88.754 36.621 C 88.704 37.591 89.28 37.599 90 37.595 C 93.976 37.573 97.953 37.603 101.929 37.579 C 104.297 37.563 106.151 38.483 107.557 40.387 C 111.213 45.347 114.903 50.281 118.553 55.247 C 119.725 56.841 120.269 58.557 119.871 60.633 C 119.315 63.537 119.049 66.497 118.633 69.431 C 118.273 71.965 117.995 74.521 117.461 77.019 C 116.943 79.455 114.589 81.477 112.137 81.499 C 110.161 81.517 108.187 81.535 106.213 81.491 C 105.443 81.473 105.001 81.691 104.639 82.421 C 103.559 84.587 101.885 86.157 99.541 86.893 C 96.154 87.955 92.676 86.819 90.766 83.799 C 90.52 83.411 90.306 83.005 90.058 82.549 M 90.17 75.031 C 90.776 73.771 91.578 72.657 92.666 71.775 C 95.206 69.717 98.017 69.169 101.047 70.519 C 103.833 71.761 105.231 74.059 105.621 77.019 C 105.683 77.483 105.699 77.871 106.327 77.863 C 108.057 77.841 109.789 77.887 111.517 77.837 C 112.695 77.805 113.745 76.779 113.879 75.755 C 114.109 73.999 114.387 72.249 114.649 70.497 C 114.869 69.031 115.137 67.569 115.311 66.097 C 115.525 64.277 115.803 62.469 116.077 60.657 C 116.253 59.503 116.265 58.391 115.433 57.363 C 114.109 55.725 112.901 53.995 111.649 52.301 C 109.287 49.109 106.929 45.911 104.563 42.721 C 104.037 42.011 103.427 41.409 102.449 41.409 C 98.015 41.411 93.58 41.415 89.146 41.403 C 88.562 41.401 88.36 41.647 88.282 42.209 C 88.066 43.749 87.792 45.279 87.528 46.813 C 87.206 48.695 86.854 50.573 86.544 52.457 C 86.118 55.031 85.732 57.611 85.31 60.187 C 84.864 62.895 84.4 65.601 83.938 68.309 C 83.592 70.347 83.226 72.383 82.888 74.423 C 82.706 75.525 82.562 76.633 82.384 77.843 C 84.626 77.843 86.808 77.845 88.99 77.839 C 89.322 77.839 89.466 77.615 89.494 77.313 C 89.562 76.547 89.874 75.853 90.17 75.031 M 49.064 83.267 C 50.338 82.879 51.36 82.159 51.87 80.901 C 52.51 79.319 52.422 77.777 51.304 76.411 C 50.332 75.221 48.976 74.993 47.624 75.391 C 45.554 75.999 44.356 77.803 44.826 80.613 C 45.042 81.899 46.548 83.687 49.064 83.267 M 94.032 80.289 C 94.662 81.727 96.262 82.861 97.462 82.687 C 100.337 82.271 101.919 79.399 101.127 77.129 C 100.385 74.999 98.197 73.913 96.166 74.873 C 94.2 75.805 93.4 77.751 94.032 80.289 Z" />
  <path
    d="M 39.252 64.451 C 30.386 64.451 21.602 64.453 12.818 64.451 C 11.39 64.451 10.642 63.639 10.814 62.263 C 10.906 61.527 11.31 61.029 12.034 60.805 C 12.454 60.675 12.88 60.657 13.316 60.657 C 22.452 60.661 31.586 60.665 40.722 60.661 C 41.64 60.661 42.44 60.839 42.904 61.743 C 43.532 62.965 42.73 64.389 41.36 64.445 C 40.684 64.471 40.008 64.451 39.252 64.451 Z" />
  <path
    d="M 23.002 47.893 C 23.336 47.853 23.604 47.817 23.874 47.817 C 30.716 47.813 37.56 47.815 44.402 47.811 C 45.332 47.811 46.016 48.079 46.52 48.977 C 47.136 50.075 46.122 51.513 44.984 51.615 C 44.85 51.629 44.714 51.625 44.578 51.625 C 37.6 51.627 30.622 51.631 23.644 51.623 C 21.958 51.621 21.034 50.159 21.796 48.757 C 22.048 48.291 22.46 48.067 23.002 47.893 Z" />
  <path
    d="M 31.956 58.157 C 30.486 58.163 29.08 58.151 27.676 58.149 C 24.214 58.147 20.752 58.157 17.29 58.143 C 15.89 58.137 15.15 57.237 15.362 55.863 C 15.502 54.941 16.39 54.329 17.636 54.325 C 20.692 54.319 23.748 54.325 26.804 54.325 C 28.346 54.325 29.888 54.301 31.428 54.329 C 32.24 54.343 32.996 54.575 33.404 55.365 C 34.042 56.599 33.538 57.589 31.956 58.157 Z" />
  <path
    d="M 47.494 50.063 C 47.474 48.465 48.616 47.471 49.892 47.899 C 50.702 48.171 51.308 49.025 51.248 49.811 C 51.186 50.607 50.496 51.399 49.692 51.599 C 48.964 51.777 48.07 51.337 47.664 50.585 C 47.588 50.445 47.554 50.283 47.494 50.063 Z" />
  <path
    d="M 1.89 41.865 C 3.632 41.677 4.484 42.299 4.442 43.659 C 4.414 44.579 3.88 45.271 3.082 45.425 C 2.098 45.617 1.25 45.219 0.854 44.377 C 0.498 43.621 0.728 42.669 1.406 42.129 C 1.53 42.029 1.684 41.965 1.89 41.865 Z" />
  <path
    d="M 9.62 63.617 C 8.734 64.569 7.878 64.725 7.01 64.139 C 6.268 63.637 6 62.599 6.396 61.755 C 6.82 60.851 7.878 60.441 8.788 60.825 C 9.82 61.259 10.166 62.349 9.62 63.617 Z" />
  <path
    d="M 106.211 49.239 C 107.105 50.593 107.977 51.893 108.821 53.211 C 109.039 53.553 109.409 53.895 109.101 54.383 C 108.809 54.847 108.345 54.845 107.881 54.845 C 105.963 54.845 104.045 54.845 102.127 54.845 C 98.155 54.843 94.184 54.847 90.212 54.837 C 89.022 54.835 88.656 54.347 88.952 53.195 C 89.312 51.789 89.462 50.343 89.714 48.917 C 89.928 47.701 90.132 46.483 90.358 45.269 C 90.488 44.583 91.046 44.601 91.566 44.601 C 94.456 44.597 97.36 44.769 100.235 44.543 C 102.473 44.365 103.921 45.045 104.843 47.065 C 105.187 47.819 105.725 48.485 106.211 49.239 Z" />
</svg>