<svg viewBox="0 0 615 615" xmlns="http://www.w3.org/2000/svg">
  <path
    d="M303.728 21.886c-1.781 3.144-14.458 25.25-28.288 49.138s-24.83 43.584-24.411 43.689 11.839-1.048 25.354-2.62l24.516-2.828 2.829-6.81c1.572-3.667 3.353-6.915 3.877-7.125.628-.209 23.259 35.936 50.499 80.149C496.505 400.63 494.829 397.801 495.562 395.811c1.362-3.772 3.877-29.86 4.086-42.537l.21-12.572-15.506-26.193c-8.487-14.353-24.307-40.965-35.098-59.09-28.602-48.194-69.148-116.504-80.149-135.153-34.784-58.881-60.662-102.256-61.291-103.094-.524-.524-2.305 1.676-4.086 4.714" />
  <path
    d="M268.526 125.085c-49.242 6.6-91.569 28.288-131.801 67.472-33.317 32.269-53.328 64.014-65.062 102.989-8.068 26.507-10.477 51.232-8.382 83.292.733 10.582 1.467 19.487 1.676 19.697.21.209 2.62-3.248 5.134-7.753 2.619-4.401 11.42-19.278 19.592-33.003 12.887-21.792 15.087-25.983 17.078-34.05 16.763-67.158 59.09-117.447 119.018-141.544 27.345-11.106 56.157-16.868 90.836-18.545 8.382-.419 15.296-.943 15.296-1.257s-5.343-9.22-11.734-19.801l-11.839-19.173-14.668.104c-8.067.105-19.382.734-25.144 1.572m133.581 16.658c0 .315 7.753 13.935 17.183 30.279 17.077 29.44 17.391 29.859 27.764 39.917 29.754 28.812 51.966 68.834 59.823 107.39 11.42 55.947-.733 111.58-33.945 156.107l-5.867 7.858 23.259.314c17.706.209 23.573-.105 24.516-1.048 2.933-3.143 24.621-47.251 27.554-56.052 7.544-23.154 9.953-41.908 9.22-71.767-.733-30.593-4.924-52.385-14.982-78.054-21.268-54.48-61.71-99.427-111.79-124.676-13.096-6.496-22.735-10.896-22.735-10.268" />
  <path
    d="M238.98 188.89c-12.991 4.295-23.992 9.848-36.46 18.02l-9.429 6.286-15.401 24.098c-24.621 38.555-52.699 84.654-78.158 128.133-22.107 37.822-67.263 113.361-89.579 149.821L0 531.488l29.126.314c16.03.105 42.641.105 59.195 0l29.964-.314-4.924-6.286c-2.619-3.458-8.172-11.106-12.258-17.078l-7.439-10.687H81.825c-6.495 0-11.839-.314-11.839-.628 0-.419 32.479-56.471 82.245-141.859 27.24-46.727 64.538-110.846 79.625-136.725 9.639-16.763 18.02-31.011 18.649-31.745 1.467-1.886.314-1.571-11.525 2.41m312.948 253.334c-1.99 5.867-6.076 15.925-9.01 22.525l-5.448 11.734 4.086 9.639c2.2 5.239 4.086 9.953 4.086 10.477 0 .419-83.082.838-184.605.838l-184.709.105 4.715 4.086c9.324 8.172 22.735 17.078 35.517 23.364l12.886 6.496 192.777.314 192.777.21-1.467-2.305c-.838-1.362-14.144-23.888-29.65-50.08-15.401-26.193-28.078-47.776-28.183-47.88-.105-.105-1.781 4.61-3.772 10.477" />
  <path
    d="m108.123 455.215-11.63 20.745 3.143 5.762c8.801 16.239 37.089 49.766 51.757 61.29 34.05 26.926 65.795 42.118 104.036 49.766 45.68 9.115 96.389 5.972 137.773-8.591 13.62-4.819 38.765-17.811 54.375-28.078l13.411-8.906-40.336-.314-40.442-.21-10.896 4.086c-6.076 2.201-14.144 4.61-18.125 5.344-10.686 1.886-55.738 2.619-68.205 1.152-47.251-5.553-88.74-25.983-124.048-60.871-16.658-16.554-27.869-32.584-34.469-49.766-1.781-4.61-3.562-9.22-3.981-10.267-.629-1.467-3.563 2.933-12.363 18.858" />
  <path
    d="M445.492 359.439c0 75.222-60.979 136.201-136.201 136.201S173.09 434.661 173.09 359.439s60.979-136.201 136.201-136.201 136.201 60.979 136.201 136.201m-136.201-95c-52.467 0-95 42.533-95 95s42.533 95 95 95 95-42.533 95-95-42.533-95-95-95" />
  <path d="M349.291 359.439a40 40 0 0 1-40 40 40 40 0 0 1-40-40 40 40 0 0 1 40-40 40 40 0 0 1 40 40" />
</svg>