<svg viewBox="0 0 3650 615" xmlns="http://www.w3.org/2000/svg">
  <defs></defs>
  <g>
    <path
      d="M 907.156 90.625 L 1109.074 504.163 L 1071.585 504.163 L 1000.585 361.163 L 811.281 361.163 L 741.281 504.163 L 705.774 504.163 Z M 905.71 166.129 L 826.556 328.663 L 985.702 328.663 Z"
      style="text-transform: capitalize;"></path>
    <path
      d="M 1224.543 511.163 L 1219.501 511.163 C 1187.174 510.81 1157.968 498.685 1135.357 476.394 C 1113.239 453.588 1101.437 423.556 1101.104 389.611 L 1101.104 111.163 L 1135.604 111.163 L 1135.604 389.274 C 1135.319 415.922 1143.439 436.37 1160.664 453.499 C 1177.51 471.115 1196.809 478.663 1222.104 478.663 C 1247.422 478.663 1266.954 470.812 1283.58 453.462 C 1300.707 436.474 1308.393 416.084 1308.104 389.102 L 1308.104 111.163 L 1342.604 111.163 L 1342.604 388.749 C 1342.284 423.011 1330.279 453.356 1308.16 476.336 C 1285.564 498.792 1256.565 510.803 1224.543 511.163 Z"
      style=""></path>
    <path
      d="M 1414.664 111.163 C 1472.336 111.501 1520.87 131.425 1556.752 169.344 C 1591.975 207.57 1610.609 254.777 1610.609 307.913 C 1610.609 361.044 1591.931 408.306 1556.875 446.37 C 1521.15 484.127 1472.575 503.822 1414.577 504.163 L 1389.609 504.163 L 1389.609 111.163 Z M 1430.948 144.419 L 1427.793 144.275 L 1423.609 144.083 L 1423.609 470.738 L 1430.913 470.416 C 1471.698 468.418 1502.052 455.651 1531.693 423.121 C 1561.89 390.895 1576.109 353.468 1576.109 307.913 C 1576.109 262.353 1562.022 224.886 1531.78 192.304 C 1502.566 159.937 1471.776 146.503 1430.948 144.419 Z"
      style="text-transform: capitalize;"></path>
    <path d="M 1679.523 504.163 L 1645.023 504.163 L 1645.023 111.163 L 1679.523 111.163 Z"
      style="text-transform: capitalize;"></path>
    <path
      d="M 1914.008 510.663 C 1860.577 510.283 1812.544 489.361 1773.314 449.374 C 1734.561 409.006 1714.074 360.311 1714.074 306.413 C 1714.074 252.483 1734.989 204.031 1774.283 164.481 C 1814.017 125.358 1863.176 104.663 1918.574 104.663 C 1973.96 104.663 2023.222 125.085 2062.437 164.3 C 2101.643 203.506 2122.074 252.167 2122.074 306.413 C 2122.074 360.634 2101.566 409.529 2062.975 449.737 C 2023.901 489.562 1975.621 510.278 1921.535 510.663 Z M 2087.574 307.484 C 2087.574 306.714 2087.574 295.121 2087.574 270.538 C 2087.574 248.22 2072.099 221.564 2037.972 187.289 C 2004.592 153.167 1965.761 137.163 1918.324 137.163 C 1870.887 137.163 1832.061 153.059 1798.499 187.215 C 1764.524 220.934 1748.574 259.964 1748.574 307.413 C 1748.574 354.863 1764.412 393.876 1798.418 427.781 C 1831.969 462.064 1870.812 478.163 1918.074 478.163 C 1965.334 478.163 2004.076 462.19 2037.642 427.872 C 2071.626 393.968 2087.903 354.894 2087.574 307.484 Z"
      style="text-transform: capitalize;"></path>
    <path
      d="M 2503.961 510.663 C 2450.53 510.283 2402.497 489.361 2363.267 449.374 C 2324.514 409.006 2304.027 360.311 2304.027 306.413 C 2304.027 252.483 2324.942 204.031 2364.236 164.481 C 2403.97 125.358 2453.129 104.663 2508.527 104.663 C 2563.913 104.663 2613.175 125.085 2652.39 164.3 C 2691.596 203.506 2712.027 252.167 2712.027 306.413 C 2712.027 360.634 2691.519 409.529 2652.928 449.737 C 2613.855 489.56 2565.573 510.278 2511.488 510.663 Z M 2677.527 307.484 C 2677.527 306.714 2677.527 295.121 2677.527 270.538 C 2677.527 248.22 2662.053 221.565 2627.925 187.289 C 2594.546 153.167 2555.714 137.163 2508.277 137.163 C 2460.84 137.163 2422.012 153.06 2388.45 187.217 C 2354.475 220.935 2338.527 259.963 2338.527 307.413 C 2338.527 354.863 2354.361 393.868 2388.364 427.773 C 2421.914 462.05 2460.765 478.163 2508.027 478.163 C 2555.287 478.163 2594.013 462.205 2627.58 427.888 C 2661.554 393.987 2677.855 354.894 2677.527 307.484 Z"
      style="text-transform: capitalize;"></path>
    <path
      d="M 2879.438 90.625 L 3081.356 504.163 L 3043.867 504.163 L 2972.867 361.163 L 2783.563 361.163 L 2713.563 504.163 L 2678.056 504.163 Z M 2877.992 166.129 L 2798.838 328.663 L 2957.984 328.663 Z"
      style="text-transform: capitalize;"></path>
    <path
      d="M 3252.48 177.402 C 3245.5 164.375 3236.505 155.006 3224.354 147.77 C 3212.354 140.29 3200.08 137.163 3184.917 137.163 C 3170.133 137.163 3158.831 141.291 3148.886 150.347 L 3117.887 174.306 L 3137.456 165.905 L 3136.781 167.998 C 3135.331 172.481 3134.678 175.593 3134.917 185.291 L 3134.907 188.006 C 3134.337 206.489 3144.143 221.882 3166.274 237.933 C 3176.054 245.115 3186.851 252.06 3199.14 259.107 C 3211.757 266.339 3224.489 274.149 3237.098 282.382 C 3249.865 290.742 3261.799 299.879 3272.239 309.266 C 3282.992 319.078 3292.377 331.778 3299.294 345.801 C 3306.132 360.105 3309.8 376.75 3309.917 393.699 L 3309.917 398.765 C 3309.541 432.15 3297.089 460.813 3274.447 481.062 C 3251.543 500.538 3222.085 511.163 3188.917 511.163 C 3145.125 511.163 3109.004 491.352 3084.398 455.612 L 3082.917 453.4 L 3082.917 382.16 L 3096.287 411.544 L 3100.137 419.998 C 3108.169 437.961 3119.577 451.619 3135.46 462.635 C 3150.928 473.788 3169.133 478.663 3192.917 478.663 C 3216.379 478.663 3235.292 471.772 3252.179 456.734 C 3269.293 442.308 3276.77 424.381 3276.417 399.58 L 3276.417 396.555 C 3276.574 381.168 3272.83 368.252 3264.74 355.607 C 3256.622 342.5 3247.074 332.553 3234.832 324.336 C 3221.904 315.546 3207.881 306.407 3192.62 296.777 C 3177.269 287.101 3163.029 278.053 3150.022 269.717 C 3136.333 260.841 3124.151 248.968 3114.919 235.639 C 3105.695 221.811 3100.638 205.388 3100.417 189.092 L 3100.417 185.526 C 3100.792 160.516 3110.175 139.082 3126.384 125.066 C 3142.757 112.004 3163.979 104.663 3187.417 104.663 C 3220.004 104.663 3247.915 118.233 3267.503 142.113 L 3269.417 144.513 L 3269.417 208.424 L 3260.027 191.229 Z"
      style="text-transform: capitalize;"></path>
    <path d="M 3376.444 504.163 L 3341.944 504.163 L 3341.944 111.163 L 3376.444 111.163 Z"
      style="text-transform: capitalize;"></path>
    <path
      d="M 3577.991 177.402 C 3571.011 164.375 3562.016 155.006 3549.866 147.77 C 3537.871 140.3 3525.59 137.163 3510.428 137.163 C 3495.731 137.163 3484.825 141.059 3475.002 149.805 L 3474.882 149.912 L 3469.768 152.089 L 3471.096 152.898 L 3443.4 174.301 L 3462.969 165.903 L 3462.292 167.997 C 3460.842 172.479 3460.189 175.593 3460.428 185.291 L 3460.418 188.006 C 3459.848 206.489 3469.658 221.884 3491.787 237.934 C 3501.566 245.116 3512.362 252.06 3524.651 259.107 C 3537.268 266.339 3550 274.149 3562.609 282.382 C 3575.38 290.745 3587.31 299.879 3597.75 309.266 C 3608.504 319.078 3617.888 331.778 3624.805 345.8 C 3631.642 360.105 3635.311 376.75 3635.428 393.699 L 3635.428 398.765 C 3635.052 432.15 3622.6 460.813 3599.958 481.062 C 3577.054 500.538 3547.596 511.163 3514.428 511.163 C 3470.636 511.163 3434.515 491.352 3409.909 455.612 L 3408.428 453.4 L 3408.428 382.16 L 3421.798 411.544 L 3425.648 419.998 C 3433.68 437.961 3445.088 451.619 3460.971 462.635 C 3476.439 473.788 3494.644 478.663 3518.428 478.663 C 3541.89 478.663 3560.803 471.772 3577.69 456.734 C 3594.804 442.308 3602.281 424.382 3601.928 399.58 L 3601.928 396.555 C 3602.085 381.168 3598.332 368.243 3590.245 355.599 C 3582.13 342.496 3572.585 332.553 3560.343 324.336 C 3547.415 315.546 3533.392 306.407 3518.131 296.777 C 3502.78 287.101 3488.54 278.054 3475.534 269.716 C 3461.844 260.841 3449.662 248.968 3440.43 235.639 C 3431.206 221.811 3426.148 205.388 3425.928 189.092 L 3425.928 185.526 C 3426.303 160.516 3435.686 139.082 3451.895 125.066 C 3468.268 112.004 3489.49 104.663 3512.928 104.663 C 3545.515 104.663 3573.426 118.233 3593.014 142.113 L 3594.928 144.513 L 3594.928 208.424 L 3585.538 191.229 Z"
      style="text-transform: capitalize;"></path>
  </g>
  <g>
    <path
      d="M 303.728 21.886 C 301.947 25.03 289.27 47.136 275.44 71.024 C 261.61 94.912 250.61 114.608 251.029 114.713 C 251.448 114.818 262.868 113.665 276.383 112.093 L 300.899 109.265 L 303.728 102.455 C 305.3 98.788 307.081 95.54 307.605 95.33 C 308.233 95.121 330.864 131.266 358.104 175.479 C 496.505 400.63 494.829 397.801 495.562 395.811 C 496.924 392.039 499.439 365.951 499.648 353.274 L 499.858 340.702 L 484.352 314.509 C 475.865 300.156 460.045 273.544 449.254 255.419 C 420.652 207.225 380.106 138.915 369.105 120.266 C 334.321 61.385 308.443 18.01 307.814 17.172 C 307.29 16.648 305.509 18.848 303.728 21.886">
    </path>
    <path
      d="M 268.526 125.085 C 219.284 131.685 176.957 153.373 136.725 192.557 C 103.408 224.826 83.397 256.571 71.663 295.546 C 63.595 322.053 61.186 346.778 63.281 378.838 C 64.014 389.42 64.748 398.325 64.957 398.535 C 65.167 398.744 67.577 395.287 70.091 390.782 C 72.71 386.381 81.511 371.504 89.683 357.779 C 102.57 335.987 104.77 331.796 106.761 323.729 C 123.524 256.571 165.851 206.282 225.779 182.185 C 253.124 171.079 281.936 165.317 316.615 163.64 C 324.997 163.221 331.911 162.697 331.911 162.383 C 331.911 162.069 326.568 153.163 320.177 142.582 L 308.338 123.409 L 293.67 123.513 C 285.603 123.618 274.288 124.247 268.526 125.085 M 402.107 141.743 C 402.107 142.058 409.86 155.678 419.29 172.022 C 436.367 201.462 436.681 201.881 447.054 211.939 C 476.808 240.751 499.02 280.773 506.877 319.329 C 518.297 375.276 506.144 430.909 472.932 475.436 L 467.065 483.294 L 490.324 483.608 C 508.03 483.817 513.897 483.503 514.84 482.56 C 517.773 479.417 539.461 435.309 542.394 426.508 C 549.938 403.354 552.347 384.6 551.614 354.741 C 550.881 324.148 546.69 302.356 536.632 276.687 C 515.364 222.207 474.922 177.26 424.842 152.011 C 411.746 145.515 402.107 141.115 402.107 141.743">
    </path>
    <path
      d="M 238.98 188.89 C 225.989 193.185 214.988 198.738 202.52 206.91 L 193.091 213.196 L 177.69 237.294 C 153.069 275.849 124.991 321.948 99.532 365.427 C 77.425 403.249 32.269 478.788 9.953 515.248 L 0 531.488 L 29.126 531.802 C 45.156 531.907 71.767 531.907 88.321 531.802 L 118.285 531.488 L 113.361 525.202 C 110.742 521.744 105.189 514.096 101.103 508.124 L 93.664 497.437 L 81.825 497.437 C 75.33 497.437 69.986 497.123 69.986 496.809 C 69.986 496.39 102.465 440.338 152.231 354.95 C 179.471 308.223 216.769 244.104 231.856 218.225 C 241.495 201.462 249.876 187.214 250.505 186.48 C 251.972 184.594 250.819 184.909 238.98 188.89 M 551.928 442.224 C 549.938 448.091 545.852 458.149 542.918 464.749 L 537.47 476.483 L 541.556 486.122 C 543.756 491.361 545.642 496.075 545.642 496.599 C 545.642 497.018 462.56 497.437 361.037 497.437 L 176.328 497.542 L 181.043 501.628 C 190.367 509.8 203.778 518.706 216.56 524.992 L 229.446 531.488 L 422.223 531.802 L 615 532.012 L 613.533 529.707 C 612.695 528.345 599.389 505.819 583.883 479.627 C 568.482 453.434 555.805 431.851 555.7 431.747 C 555.595 431.642 553.919 436.357 551.928 442.224">
    </path>
    <path
      d="M 108.123 455.215 L 96.493 475.96 L 99.636 481.722 C 108.437 497.961 136.725 531.488 151.393 543.012 C 185.443 569.938 217.188 585.13 255.429 592.778 C 301.109 601.893 351.818 598.75 393.202 584.187 C 406.822 579.368 431.967 566.376 447.577 556.109 L 460.988 547.203 L 420.652 546.889 L 380.21 546.679 L 369.314 550.765 C 363.238 552.966 355.17 555.375 351.189 556.109 C 340.503 557.995 295.451 558.728 282.984 557.261 C 235.733 551.708 194.244 531.278 158.936 496.39 C 142.278 479.836 131.067 463.806 124.467 446.624 C 122.686 442.014 120.905 437.404 120.486 436.357 C 119.857 434.89 116.923 439.29 108.123 455.215">
    </path>
    <path
      d="M 445.492 359.439 C 445.492 434.661 384.513 495.64 309.291 495.64 C 234.069 495.64 173.09 434.661 173.09 359.439 C 173.09 284.217 234.069 223.238 309.291 223.238 C 384.513 223.238 445.492 284.217 445.492 359.439 M 309.291 264.439 C 256.824 264.439 214.291 306.972 214.291 359.439 C 214.291 411.906 256.824 454.439 309.291 454.439 C 361.758 454.439 404.291 411.906 404.291 359.439 C 404.291 306.972 361.758 264.439 309.291 264.439">
    </path>
    <path
      d="M 349.291 359.439 C 349.291 381.53 331.383 399.439 309.291 399.439 C 287.2 399.439 269.291 381.53 269.291 359.439 C 269.291 337.348 287.2 319.439 309.291 319.439 C 331.383 319.439 349.291 337.348 349.291 359.439">
    </path>
  </g>
</svg>